<?xml version="1.0" encoding="utf-8"?>
<!-- Generator: Adobe Illustrator 22.1.0, SVG Export Plug-In . SVG Version: 6.00 Build 0)  -->
<svg version="1.1" id="Слой_1" xmlns="http://www.w3.org/2000/svg" xmlns:xlink="http://www.w3.org/1999/xlink" x="0px" y="0px"
	 viewBox="0 0 283.5 69" style="enable-background:new 0 0 283.5 68.7;" xml:space="preserve">
<polygon points="260.9,35.2 260.9,0.4 283.5,0.4 283.5,2.9 263.3,2.9 263.3,16.6 279,16.6 279,19.1 263.3,19.1 263.3,32.7 
	283.5,32.7 283.5,35.2 "/>
<g>
	<path d="M237.8,35.6c-3.2,0-6.1-0.8-8.8-2.4c-2.7-1.6-4.9-3.8-6.4-6.5c-1.6-2.7-2.4-5.7-2.4-8.9c0-3.2,0.8-6.2,2.4-8.9
		c1.6-2.7,3.7-4.9,6.4-6.5c2.7-1.6,5.7-2.4,8.8-2.4c2.5,0,4.8,0.5,7.1,1.5c2.3,1,4.3,2.5,6,4.3L249,7.5c-1.4-1.6-3.1-2.9-5.1-3.7
		c-1.9-0.9-4-1.3-6.1-1.3c-2.7,0-5.3,0.7-7.6,2.1c-2.3,1.4-4.2,3.2-5.5,5.6c-1.4,2.4-2.1,4.9-2.1,7.7c0,2.8,0.7,5.4,2.1,7.7
		c1.4,2.4,3.2,4.2,5.5,5.6c2.3,1.4,4.9,2.1,7.6,2.1c2.3,0,4.5-0.5,6.5-1.5c2.1-1,3.8-2.4,5.3-4.2l1.9,1.5c-1.7,2.1-3.7,3.7-6.1,4.9
		C243,35,240.5,35.6,237.8,35.6"/>
	<polygon points="186.4,7 186.4,35.2 184,35.2 184,0 208.1,28.8 208.1,0.4 210.5,0.4 210.5,35.8 	"/>
	<path d="M159.3,0l-16.4,35.2h2.7l4.1-8.8h18.5l3.9,8.8h2.6L159.3,0z M150.9,24l8.4-18l8,18H150.9z"/>
	<path d="M137.1,11.2c-0.8-2.1-1.9-3.9-3.4-5.5c-1.5-1.7-3.4-3-5.5-3.9c-2.1-0.9-4.4-1.4-6.9-1.4h-10v34.8h10c2.5,0,4.7-0.5,6.9-1.4
		c2.1-0.9,3.9-2.2,5.5-3.9c1.5-1.6,2.6-3.5,3.4-5.6c0.8-2.1,1.2-4.3,1.2-6.6C138.2,15.5,137.8,13.3,137.1,11.2 M134.8,23.5
		c-0.7,1.8-1.6,3.4-2.9,4.7c-2.7,3-6.2,4.6-10.5,4.6h-7.6V2.9h7.6c4.3,0,7.8,1.5,10.5,4.4c1.2,1.4,2.2,2.9,2.9,4.7
		c0.7,1.8,1,3.7,1,5.7C135.8,19.8,135.4,21.7,134.8,23.5"/>
	<polygon points="75.4,7 75.4,35.2 73,35.2 73,0 97.1,28.8 97.1,0.4 99.5,0.4 99.5,35.8 	"/>
	<polygon points="39.6,35.2 39.6,0.4 62.2,0.4 62.2,2.9 42,2.9 42,16.6 57.7,16.6 57.7,19.1 42,19.1 42,32.7 62.2,32.7 62.2,35.2 	
		"/>
	<polygon points="0.2,0.4 0.2,2.9 14,2.9 14,35.2 16.5,35.2 16.5,2.9 30.3,2.9 30.3,0.4 	"/>
	<path d="M168,62c-0.3-0.1-0.6-0.3-0.9-0.4c-0.4-0.1-0.8-0.2-1.2-0.2c-0.4-0.1-0.6-0.1-0.7-0.1c-0.6-0.1-1-0.1-1.4-0.2
		c-0.4-0.1-0.7-0.2-1-0.3c-0.5-0.2-0.9-0.6-1.2-1c-0.3-0.4-0.5-0.9-0.5-1.3c0-0.4,0.1-0.7,0.3-1c0.2-0.3,0.5-0.6,0.9-0.9
		c0.4-0.3,0.8-0.5,1.3-0.7c0.5-0.1,1-0.2,1.6-0.2c0.5,0,1.1,0.1,1.6,0.2c0.5,0.1,0.9,0.4,1.3,0.7c0.4,0.3,0.6,0.6,0.8,0.9
		c0.2,0.3,0.3,0.7,0.3,1l0.9-0.5c-0.1-0.8-0.6-1.6-1.5-2.2c-1-0.7-2.2-1.1-3.5-1.1c-0.7,0-1.3,0.1-1.9,0.3c-0.6,0.2-1.1,0.4-1.6,0.8
		c-0.5,0.4-0.9,0.8-1.1,1.2c-0.3,0.5-0.4,1-0.4,1.5c0,0.7,0.2,1.3,0.6,1.8c0.4,0.6,1,1,1.7,1.4c0.4,0.2,1,0.4,1.6,0.5
		c0.6,0.1,1,0.2,1.1,0.2c1.2,0.1,2.1,0.3,2.5,0.6c0.5,0.3,0.9,0.6,1.2,1c0.3,0.4,0.4,0.8,0.4,1.2c0,0.8-0.4,1.4-1.1,2
		c-0.8,0.6-1.7,0.9-2.9,0.9c-0.6,0-1.1-0.1-1.6-0.2c-0.5-0.1-0.9-0.4-1.3-0.7c-0.7-0.5-1.1-1.1-1.2-1.9l-0.9,0.5
		c0.2,0.9,0.7,1.6,1.5,2.2c0.5,0.3,1,0.6,1.6,0.8c0.6,0.2,1.2,0.3,1.9,0.3c1.3,0,2.5-0.4,3.5-1.1c0.5-0.4,0.9-0.8,1.1-1.3
		c0.3-0.5,0.4-1,0.4-1.5c0-0.6-0.2-1.2-0.5-1.7C169.2,62.8,168.7,62.3,168,62"/>
	<rect x="154.7" y="54.8" width="1" height="13.9"/>
	<path d="M150.1,68.7l-5-6.1c0.5,0,0.9,0,1.3-0.1c0.4-0.1,0.9-0.2,1.3-0.4c0.6-0.3,1.2-0.7,1.7-1.3c0.5-0.6,0.7-1.3,0.7-2.1
		c0-0.5-0.1-1-0.3-1.5c-0.2-0.5-0.5-0.9-1-1.3c-0.4-0.4-0.9-0.7-1.5-0.9c-0.6-0.2-1.2-0.3-1.8-0.3h-4.9v13.9h1v-13h3.9
		c0.7,0,1.4,0.1,1.9,0.4s1,0.7,1.3,1.1c0.3,0.4,0.4,0.9,0.4,1.4c0,0.6-0.2,1.1-0.5,1.5c-0.4,0.5-0.8,0.8-1.3,1
		c-0.7,0.3-1.5,0.4-2.6,0.4H143l5.8,7H150.1z"/>
	<path d="M130.7,54.6l-6.6,14.1h1.1l1.6-3.5h7.4l1.6,3.5h1L130.7,54.6z M127.4,64.2l3.3-7.2l3.2,7.2H127.4z"/>
	<path d="M122.5,56.8c-0.4-0.6-1-1.1-1.6-1.4c-0.7-0.4-1.4-0.5-2.3-0.5h-5l0,13.9h1v-6h4c0.8,0,1.6-0.2,2.3-0.5
		c0.7-0.4,1.2-0.8,1.6-1.4c0.4-0.6,0.6-1.3,0.6-2C123.1,58,122.9,57.4,122.5,56.8 M121.7,60.2c-0.3,0.4-0.8,0.8-1.3,1.1
		c-0.5,0.3-1.1,0.4-1.8,0.4h-4l0-5.9h4c0.6,0,1.2,0.1,1.8,0.4c0.5,0.3,1,0.6,1.3,1.1c0.3,0.4,0.5,0.9,0.5,1.5
		C122.1,59.3,122,59.8,121.7,60.2"/>
</g>
</svg>
