<?xml version="1.0" encoding="utf-8"?>
<!-- Generator: Adobe Illustrator 22.1.0, SVG Export Plug-In . SVG Version: 6.00 Build 0)  -->
<svg version="1.1" id="Layer_1" xmlns="http://www.w3.org/2000/svg" xmlns:xlink="http://www.w3.org/1999/xlink" x="0px" y="0px"
	 viewBox="0 0 612 128" style="enable-background:new 0 0 612 128;" xml:space="preserve">
<g>
	<polygon points="273.9,22.1 259.1,22.1 259.1,53.2 249.9,53.2 249.9,22.1 235.1,22.1 235.1,13.7 273.9,13.7 	"/>
	<polygon points="322.8,13.7 322.8,53.2 313.7,53.2 313.7,34.8 294.5,34.8 294.5,53.2 285.3,53.2 285.3,13.7 294.5,13.7 294.5,26.3 
		313.7,26.3 313.7,13.7 	"/>
	<polygon points="373.1,44.7 373.1,53.2 339.5,53.2 339.5,13.7 372.8,13.7 372.8,22 348.6,22 348.6,28.9 364.5,28.9 364.5,37.2 
		348.6,37.2 348.6,44.7 	"/>
	<path d="M31.9,66.4h8l11.7,17.9c0.9,1.3,1.6,2.4,2.4,3.8c0.8-1.4,1.5-2.5,2.4-3.8l11.8-17.9h7.4v39.5h-8.8V86.3
		c0-1.1,0-2.3,0.1-3.4c-0.5,0.9-1.2,2-1.9,3.1l-11.2,17L42.5,85.8c-0.7-1.1-1.3-2.1-1.8-3.2c0.1,1.1,0.1,2.2,0.1,3.4v19.9h-8.9V66.4
		z"/>
	<path d="M120.9,97h-20.4l-4.5,8.9h-9.6l20.3-39.5h8.2l20.3,39.5h-9.8L120.9,97z M116.8,88.8l-4.6-9.2c-0.5-1.1-1.1-2.2-1.5-3.1
		c-0.4,0.9-0.9,2-1.5,3.1l-4.6,9.2H116.8z"/>
	<path d="M166.2,91.7h-11.5v14.2h-9.2V66.4h25.2c10,0,15.7,4.6,15.7,12.6c0,6.1-3.7,10.5-10.1,12.1l10.3,14.9h-10.8L166.2,91.7z
		 M154.7,83.5h16.2c4.5,0,6.2-1.5,6.2-4.4c0-2.8-1.6-4.4-6.2-4.4h-16.2V83.5z"/>
	<path d="M196.4,86.2c0-12.1,9.5-20.5,23.7-20.5c7.9,0,14.2,2.2,19.9,6.9l-6.2,6.7c-4.5-3.6-8.4-5.2-13.8-5.2
		c-8.9,0-14.3,5-14.3,12.2c0,7.2,5.6,12,14.3,12c6.3,0,10.6-1.9,15.5-6.4l6.2,6c-5.6,5.9-12.7,8.9-21.7,8.9
		C205.2,106.7,196.4,98.7,196.4,86.2"/>
	<path d="M272.3,88.2v-2.6h9.2v1.5c0,7.1,3.7,11.1,10.4,11.1c6.4,0,9.5-3.5,9.5-8.8V66.4h9.2v23.8c0,10.6-6.2,16.5-18.8,16.5
		C279.3,106.7,272.3,100.2,272.3,88.2"/>
	<path d="M353.3,97h-20.4l-4.5,8.9h-9.6l20.3-39.5h8.2l20.3,39.5h-9.8L353.3,97z M349.2,88.8l-4.6-9.2c-0.5-1.1-1.1-2.2-1.5-3.1
		c-0.4,0.9-0.9,2-1.5,3.1l-4.6,9.2H349.2z"/>
	<path d="M372.9,86.2c0-12.1,9.5-20.5,23.7-20.5c7.9,0,14.2,2.2,19.9,6.9l-6.2,6.7c-4.5-3.6-8.5-5.2-13.8-5.2
		c-8.9,0-14.3,5-14.3,12.2c0,7.2,5.6,12,14.3,12c6.3,0,10.6-1.9,15.5-6.4l6.2,6c-5.6,5.9-12.7,8.9-21.7,8.9
		C381.7,106.7,372.9,98.7,372.9,86.2"/>
	<path d="M427.4,86.2c0-12.1,9.2-20.6,22.4-20.6c13.2,0,22.4,8.4,22.4,20.6c0,12.2-9.2,20.4-22.4,20.4
		C436.6,106.7,427.4,98.4,427.4,86.2 M462.9,86.2c0-7.3-5.3-12.3-13.1-12.3c-7.8,0-13.1,5-13.1,12.3c0,7.4,5.2,12,13.1,12
		C457.7,98.2,462.9,93.5,462.9,86.2"/>
	<path d="M527.9,93.5c0,8-6,12.4-16.9,12.4h-26.3V66.4h27.4c8.9,0,13.7,3.9,13.7,10.8c0,3.1-1,5.6-3.2,7.6
		C526.1,86.7,527.9,89.4,527.9,93.5 M493.8,74.5v7h17.7c3.6,0,5.3-1.1,5.3-3.5c0-2.3-1.7-3.5-5.3-3.5H493.8z M518.7,93.5
		c0-2.4-1.8-3.8-5.8-3.8h-19.1v8h19C517,97.7,518.7,96.1,518.7,93.5"/>
	<path d="M536.4,99l5.1-6.9c5.8,4.1,11.4,6.3,18.7,6.3c7,0,11-1.4,11-4.3c0-3-4.6-3.5-11.1-4.1l-1.8-0.1c-8.6-0.7-18.4-2.5-18.4-12
		c0-5.9,4.5-12.2,19.4-12.2c6.9,0,14.4,2,19.4,5.9l-4.8,7c-4.5-3.1-9.7-4.8-15.4-4.8c-6.2,0-9.3,1.5-9.3,3.8c0,2.6,4.8,3.2,10.7,3.7
		l1.8,0.1c9.3,0.8,18.9,2.5,18.9,12.2c0,8-7.1,13.1-20.6,13.1C550.3,106.7,542.2,103.7,536.4,99"/>
</g>
</svg>
