<svg id="Слой_1" data-name="Слой 1" xmlns="http://www.w3.org/2000/svg" viewBox="0 0 107.62 59.35"><path class="cls-1" d="M.22,58.8v-10H2.44v.87a3.75,3.75,0,0,1,2.74-1.21,4.07,4.07,0,0,1,3,1.39,5.62,5.62,0,0,1,.92,3.56V58.8H6.72V53.85c0-.83,0-3.21-2-3.21a2.06,2.06,0,0,0-1.65.88A4.71,4.71,0,0,0,2.62,54V58.8H.22m12-5.87h5.54A2.68,2.68,0,0,0,15,50.59a2.9,2.9,0,0,0-2.83,2.35m.07,1.93A2.87,2.87,0,0,0,15,56.92a2.46,2.46,0,0,0,2.31-1.28h2.53A5.2,5.2,0,0,1,15,59.12a5.27,5.27,0,0,1-5.29-5.31A5.35,5.35,0,0,1,15,48.38a5.27,5.27,0,0,1,5.18,5.28A5.74,5.74,0,0,1,20,54.86Zm11,3.94h1.48l1.9-6.5h0l1.88,6.5H30l3.66-10H31.13L29.29,54.9h0l-1.62-6.12H25.71L24.07,54.9h0l-1.82-6.12H19.65Zm17.33-5.14a3,3,0,0,0,3,3.27,3.15,3.15,0,0,0,0-6.28,3,3,0,0,0-3,3m-2.25-8.22h2.4v4.25a4.45,4.45,0,0,1,3.12-1.25,5.18,5.18,0,0,1,5,5.31c0,2-1.32,5.38-5,5.38a4,4,0,0,1-3.38-1.53V58.8h-2.2Zm19.49,8.33a2.93,2.93,0,0,0-2.93-3.12,3,3,0,0,0-3,3.19,3,3,0,0,0,3,3.09,3,3,0,0,0,2.93-3.16m2.27,5H57.9V57.56a5,5,0,0,1-3.5,1.57c-2.58,0-4.87-2.06-4.87-5.4a5.06,5.06,0,0,1,5-5.29A4.27,4.27,0,0,1,57.86,50h0V48.78H60.1Zm3.68-13.36h-2.4V58.8h2.4Zm9,8.33a2.93,2.93,0,0,0-2.92-3.12,3,3,0,0,0-3,3.19,3,3,0,0,0,3,3.09,3,3,0,0,0,2.92-3.16m2.28,5h-2.2V57.56a5,5,0,0,1-3.5,1.57c-2.58,0-4.87-2.06-4.87-5.4a5.06,5.06,0,0,1,5-5.29A4.26,4.26,0,0,1,72.84,50h0V48.78h2.2Zm1.28,0h2.4V54a4.71,4.71,0,0,1,.43-2.51,2.06,2.06,0,0,1,1.64-.88c2,0,2,2.38,2,3.21V58.8h2.4V53.38a5.62,5.62,0,0,0-.93-3.56,4.07,4.07,0,0,0-3-1.39,3.75,3.75,0,0,0-2.74,1.21v-.87H76.36v10m17.43-3.27a2.57,2.57,0,0,1-2.22,1.39,3,3,0,0,1-3-3.14,2.92,2.92,0,0,1,2.9-3.14,2.49,2.49,0,0,1,2.33,1.46h2.71a5.25,5.25,0,0,0-5-3.67,5.34,5.34,0,0,0,0,10.69,5.19,5.19,0,0,0,5-3.59H93.78m5.54-2.6h5.54a2.68,2.68,0,0,0-2.71-2.35,2.9,2.9,0,0,0-2.83,2.35m.07,1.93a2.85,2.85,0,0,0,2.76,2.06,2.46,2.46,0,0,0,2.31-1.28H107a5.2,5.2,0,0,1-4.84,3.48,5.27,5.27,0,0,1-5.29-5.31,5.35,5.35,0,0,1,5.27-5.44,5.26,5.26,0,0,1,5.18,5.28,5.57,5.57,0,0,1-.14,1.21ZM55.66,14l11.7.76-.45.78L27,18.18l-1.78,3.08L62.3,23.6l-.45.78-20.64,1.2,1.56,5.86,14.51.89-.45.78L43.45,34,44.71,39H70.25c6.15,0,17.2-4.07,18.49-12.61.72-4.81-3.47-6.67-5.15-6.87,7.93-2.24,10.64-7.57,11.21-9.69,1.91-7-3-9.37-9.66-9.37H63.5L60.78,5.18,72.44,6,72,6.78l-12.61.81L55.66,14M76.6,8h3.57c1.54,0,2.7,1.8,1.83,3.91-.94,2.28-3.5,3.4-6,3.42l-3.69,0ZM72.35,22.69c1.29,0,3.12,1.34,2.12,3.93-1.08,2.79-4.59,3.77-6.55,3.77H63.69l4.44-7.7ZM16.78,35.92,15,39l18.35,0,2.56-4.41ZM35.44,3.52,53.08,4.63,52,.45H37.21ZM32.1,9.31l-1.78,3.08L55.53,14,53.92,7.93ZM21.89,27l-1.78,3.09,17.76,1,3.21-5.54Z"/></svg>