<svg version="1.1" id="Artwork" xmlns="http://www.w3.org/2000/svg" xmlns:xlink="http://www.w3.org/1999/xlink" x="0px" y="0px"
	 viewBox="28 42 228 114" style="enable-background:new 0 0 283.5 198.4;" xml:space="preserve">
<path id="PUMA_x5F_Logo_x5F_Standard-No1_x5F_with-Registration" d="M150.6,43.2c0.7-0.1,2,2.6,2.7,2.4c0.8-0.2,1.9-2.6,3-2.4
	c0.4,0.1,2.2,3.7,2.2,3.7c14.7,0.7,32.7,18.4,35,20.2c1.1,0.9,5.8,5.8,14.5,9.6c3.6,1.6,7.1,2.2,10.4,2c4.5-0.3,9.4-4.2,12.4-9.5
	c3.8-6.6,5.4-18.1,16.4-24.7c1.5-0.9,5-3,7.1-0.4c1.6,2.1,0.3,5.6-1.4,7.2c-1,1-3,2.1-6.7,3.8c-1.3,0.6-3.3,2.1-4.1,2.7
	c-3.9,3-6.8,9.9-10,17.3c0,0-1.4,3.7-7.3,7.7c-1,0.7-0.1,1.2,1,2.6c1.4,1.8,4.2,9.5,3.9,21c-0.1,2,0.8,2.9,1.7,4.6
	c1.6,2.9,4.8,2.3,4.7,6.1c-0.1,5.1,3.7,6.2,2.4,8.5c-0.8,1.7-0.6,3.4-0.5,5.1c0,0.9,0.4,2.1-1.3,2c-7.2-0.4-6.7-10-6.6-13.4
	c0.2-0.4-0.2-1.2-0.3-1.2c-0.3-0.3-4.8-3.7-5.1-4c-5.4-5.5-9-10.5-11-15.6c-1.3-3.4-2.7-6.8-5-8.9c-2.6-2.4-5.8-3.7-8.6-3.8
	c-20-0.1-24.1-8.9-29.5-13.2c-0.2-0.1-0.7-0.4-0.9-0.4c-0.3,0-0.6,0.4-0.7,0.5c-2.1,2.2-4.2,2.9-7.1,2.9c-6.7,0-14-5.9-15.3-4.6
	c-1,1-0.1,3.1-1.9,3.5c-2.6,0.5-5.3-2-5.1-4.2c0.4-3.9,4.4-5,7.9-5.4c2.9-0.3,5.2,0.5,5.8,0.5c1.6,0.2,1.9-1.7,1.6-3
	c-0.3-1.4-1.6-1.7-2.9-2.1c-1.6-0.5-3.4,0.9-4.6,0.4c-1.4-0.5-1.5-1.2-2.7-2.2c-1.5-1.3-3.2-1.6-3.2-3.5c0-1.7,2.1-1.8,2.7-3.4
	c0.3-0.8,0.2-1.6,0.4-2c0.7-1.3,2-1.2,3.1-2.3C149.1,46.1,149.8,43.3,150.6,43.2 M86.2,149c-1.4-0.1-2.6-1.1-2.6-2.5l0-45.6h-15
	v50.3c0,2.5,2,4.5,4.4,4.5h26.3c2.5,0,4.5-2,4.5-4.5v-50.3h-15v45.6C88.7,147.8,87.5,148.9,86.2,149 M136.5,100.8h-22.7
	c-2.7,0-4.9,2.2-4.9,4.9v49.8h15v-45.7c0-1.4,1.2-2.5,2.6-2.5c1.4,0,2.5,1.1,2.6,2.5v45.8h15v-45.8c0-1.4,1.1-2.5,2.5-2.5
	c1.4,0,2.5,1.1,2.6,2.5v45.7h15v-49.8c0-2.7-2.2-4.9-4.9-4.9H136.5z M58.6,141.8c2.7,0,4.9-2.2,4.9-4.9v-31.2c0-2.7-2.1-4.9-4.8-4.9
	H28.3v54.8h15v-13.8H58.6 M48.5,132.5c0,1.5-1.2,2.6-2.6,2.6h-2.6v-27.7h2.6c1.3,0,2.6,1.1,2.6,2.6V132.5z M189.4,155.6h15v-49.8
	c0-2.7-2.2-4.9-4.9-4.9h-25.4c-2.7,0-4.9,2.2-4.9,4.9v49.8h15v-13.7h5.1V155.6 M184.3,135.1v-25.2c0.1-1.4,1.2-2.5,2.6-2.5
	c1.4,0,2.5,1.1,2.6,2.5v25.2H184.3z M215.7,151.7c0-2.2-1.7-3.9-3.9-3.9c-2.1,0-3.8,1.8-3.8,3.9c0,2.2,1.7,3.9,3.9,3.9
	C213.9,155.6,215.7,153.8,215.7,151.7 M211.8,148.4c1.8,0,3.2,1.5,3.2,3.3c0,1.8-1.4,3.3-3.2,3.3c-1.8,0-3.3-1.5-3.3-3.3
	C208.6,149.9,210,148.4,211.8,148.4L211.8,148.4z M213.6,153.9l-1.4-1.9l0.1,0c0.5-0.1,0.9-0.7,0.9-1.2c0-0.9-0.6-1.3-1.8-1.3h-0.9
	v4.4h0.9v-1.8l1.3,1.8H213.6 M211.3,151.5v-1.2h0.2c0.6,0,0.9,0.2,0.9,0.6c0,0.4-0.3,0.6-0.9,0.6H211.3z"/>
</svg>
