<svg version="1.1" id="dkny" xmlns="http://www.w3.org/2000/svg" xmlns:xlink="http://www.w3.org/1999/xlink" x="0px" y="0px"
	 viewBox="0 0 125.3 28.1" style="enable-background:new 0 0 125.3 28.1;" xml:space="preserve">
<g>
	<path d="M7.4,0h-7.4v27.8h8.3c4,0,7-1.4,9.1-4.2c1.8-2.4,2.7-6,2.7-10.2C20,4.8,15.5,0,7.4,0z M7.6,22.8H6.3V5.1c0,0,0.9,0,1.2,0
		c5.8,0,5.8,7.3,5.8,8.5C13.3,16.4,13,22.8,7.6,22.8z"/>
	<polygon points="49.3,27.8 56.2,27.8 46.8,10.6 54.8,0 48.1,0 39.7,11.5 39.7,0 33.3,0 33.3,27.8 39.7,27.8 39.7,20 42.9,15.8 	"/>
	<polygon points="119.2,0 113.6,11.5 108.1,0 101.4,0 110.1,17.4 110.1,27.8 116.6,27.8 116.6,17.4 125.3,0 	"/>
	<polygon points="88.1,0 83.1,0 83.1,16.9 74,0 69.2,0 68.7,0 68.4,0 68.4,27.8 68.7,27.8 69.2,27.8 73.7,27.8 73.9,27.8 74,27.8 
		74,11 83.1,27.8 88.1,27.8 88.7,27.8 88.7,0 	"/>
</g>
</svg>
