<svg xmlns="http://www.w3.org/2000/svg" viewBox="0 0 1590 1065"><path d="M790.8 926.7c0-42.4 34.4-76.8 76.8-76.8s76.8 34.4 76.8 76.8-34.4 76.8-76.8 76.8c-42.3.1-76.7-34-76.8-76.3v-.5m312.6 0c0-42.4 34.4-76.8 76.8-76.8s76.8 34.4 76.8 76.8-34.4 76.8-76.8 76.8c-42.3.1-76.7-34-76.8-76.3v-.5m-724.7 0c0-42.4 34.4-76.8 76.8-76.8s76.8 34.4 76.8 76.8-34.4 76.8-76.8 76.8c-42.3.1-76.7-34-76.8-76.3v-.5m-312.6 0c0-42.4 34.4-76.8 76.8-76.8s76.8 34.4 76.8 76.8-34.4 76.8-76.8 76.8c-42.3.1-76.7-34-76.8-76.3.1-.1.1-.3 0-.5M698.2 791h-66.8v268.9h66.8V791zm-478.9 268.9h66.8V791h-66.8v21.6c-63.1-43.7-149.6-28-193.3 35.1S-2 997.3 61 1041c47.6 33 110.7 33 158.3 0v18.9zm1037.2 0h66.8V791h-66.8v21.6c-63.1-43.7-149.6-28-193.3 35.1s-28 149.6 35.1 193.3c47.6 33 110.7 33 158.3 0v18.9zm91.6-87.4c2.1 54.2 48.4 92.6 125.8 92.6 63.1 0 115.2-27.4 115.2-87.9 0-42.1-23.7-66.8-78.4-77.4l-42.6-8.4c-27.4-5.3-46.3-10.5-46.3-26.8 0-17.9 18.4-25.8 41.6-25.8 33.7 0 47.4 16.8 48.4 36.8h67.4c-3.7-52.6-45.8-87.9-113.7-87.9-70 0-111.6 38.4-111.6 88.4 0 61.1 49.5 71 92.1 78.9l35.2 6.3c25.3 4.7 36.3 12.1 36.3 26.8 0 13.2-12.6 26.3-42.6 26.3-43.7 0-57.9-22.6-58.4-42.1l-68.4.2zM531.9 699.4v113.1c-63.1-43.7-149.6-28-193.3 35.1s-28 149.6 35.1 193.3c47.6 33 110.7 33 158.3 0v19h66.8V699.4h-66.9zm412 0v113.1c-63.1-43.7-149.6-28-193.3 35.1s-28 149.6 35.1 193.3c47.6 33 110.7 33 158.3 0v19h66.8V699.4h-66.9zm-769.4-79.5l45.3 79.5h312.1L408.2 485.7 174.5 619.9zm523.7 146.3v-66.8H944L681.8 245.8 447.7 380l183.7 319.4v66.8h66.8zm345.2-66.8H1356L951.8 0 718.2 134.7l325.2 564.7z" fill="#1d1d1b"/></svg>